<svg xmlns="http://www.w3.org/2000/svg" xmlns:xlink="http://www.w3.org/1999/xlink" width="331pt" height="199pt" viewBox="0 0 330.77 198.79"><g id="graph0" class="graph" transform="scale(1 1) rotate(0) translate(4 194.7939)"><title>%3</title><g id="node1" class="node"><title>distribution</title><ellipse cx="112.719" cy="-170.995" fill="#f8f8f8" stroke="#000" rx="84.292" ry="19.6"/><text x="112.719" y="-166.595" fill="#000" font-family="sans-serif" font-size="18" text-anchor="middle">distribution</text></g><g id="node2" class="node"><title>docs</title><ellipse cx="41.719" cy="-95.397" fill="#f8f8f8" stroke="#000" rx="41.94" ry="19.6"/><text x="41.719" y="-90.997" fill="#000" font-family="sans-serif" font-size="18" text-anchor="middle">docs</text></g><g id="edge1" class="edge"><title>distribution-&gt;docs</title><path fill="none" stroke="#000" d="M94.435,-151.5266C85.6603,-142.1836 75.034,-130.8691 65.6274,-120.8534"/><polygon fill="#000" stroke="#000" points="68.12 -118.395 58.723 -113.502 63.017 -123.187 68.12 -118.395"/></g><g id="node3" class="node"><title>standalone</title><ellipse cx="183.719" cy="-95.397" fill="#f8f8f8" stroke="#000" rx="82.964" ry="19.6"/><text x="183.719" y="-90.997" fill="#000" font-family="sans-serif" font-size="18" text-anchor="middle">standalone</text></g><g id="edge2" class="edge"><title>distribution-&gt;standalone</title><path fill="none" stroke="#000" d="M131.0036,-151.5266C139.3681,-142.6204 149.4151,-131.9227 158.4842,-122.2663"/><polygon fill="#000" stroke="#000" points="161.202 -124.485 165.497 -114.799 156.1 -119.693 161.202 -124.485"/></g><g id="node4" class="node"><title>backend</title><ellipse cx="109.719" cy="-19.799" fill="#f8f8f8" stroke="#000" rx="65.108" ry="19.6"/><text x="109.719" y="-15.399" fill="#000" font-family="sans-serif" font-size="18" text-anchor="middle">backend</text></g><g id="edge3" class="edge"><title>standalone-&gt;backend</title><path fill="none" stroke="#000" d="M164.6625,-75.9286C155.79,-66.8645 145.1011,-55.9449 135.5189,-46.1557"/><polygon fill="#000" stroke="#000" points="137.952 -43.638 128.455 -38.94 132.949 -48.534 137.952 -43.638"/></g><g id="node5" class="node"><title>frontend</title><ellipse cx="257.719" cy="-19.799" fill="#f8f8f8" stroke="#000" rx="65.108" ry="19.6"/><text x="257.719" y="-15.399" fill="#000" font-family="sans-serif" font-size="18" text-anchor="middle">frontend</text></g><g id="edge4" class="edge"><title>standalone-&gt;frontend</title><path fill="none" stroke="#000" d="M202.7761,-75.9286C211.6487,-66.8645 222.3375,-55.9449 231.9197,-46.1557"/><polygon fill="#000" stroke="#000" points="234.489 -48.534 238.983 -38.94 229.487 -43.638 234.489 -48.534"/></g></g></svg>